<svg xmlns="http://www.w3.org/2000/svg" xmlns:xlink="http://www.w3.org/1999/xlink" version="1.1" x="0px" y="0px" width="500px" height="1000px" viewBox="0 0 500 1000" enable-background="new 0 0 500 1000" xml:space="preserve"><style>.style0{fill:	#FFFFFF;}.style1{fill:	#0E7AC4;}.style2{fill:	#56BE8E;}.style3{fill:	#FEC56D;}.style4{fill:	#F27398;}</style><g><path d="M33.8 0C19.2 0 6.5 6.5 0 16c6.5 9.5 19.2 16 33.8 16c14.6 0 27.3-6.5 33.8-16C61.2 6.5 48.5 0 33.8 0z" class="style0"/><circle cx="33.8" cy="16" r="14.4" class="style1"/><circle cx="33.8" cy="16" r="6.4"/></g><path d="M33.8 200c-14.6 0-27.3 6.5-33.8 16c6.5 9.5 19.2 16 33.8 16c14.6 0 27.3-6.5 33.8-16 C61.2 206.5 48.5 200 33.8 200z" class="style0"/><circle cx="33.8" cy="216" r="14.4" class="style2"/><circle cx="33.8" cy="216" r="6.4"/><path d="M33.8 400c-14.6 0-27.3 6.5-33.8 16c6.5 9.5 19.2 16 33.8 16c14.6 0 27.3-6.5 33.8-16 C61.2 406.5 48.5 400 33.8 400z" class="style0"/><circle cx="33.8" cy="416" r="14.4" class="style3"/><circle cx="33.8" cy="416" r="6.4"/><g><path d="M33.8 600c-14.6 0-27.3 6.5-33.8 16c6.5 9.5 19.2 16 33.8 16c14.6 0 27.3-6.5 33.8-16 C61.2 606.5 48.5 600 33.8 600z" class="style0"/><circle cx="33.8" cy="616" r="14.4" class="style4"/><circle cx="33.8" cy="616" r="6.4"/></g><path d="M16 800c-8.8 0-16 7.2-16 16s7.2 16 16 16c8.8 0 16-7.2 16-16S24.8 800 16 800z M24.8 813.5l-8.2 8.3 c-0.2 0.2-0.4 0.3-0.6 0.3s-0.4-0.1-0.6-0.3l-8.2-8.3c-0.3-0.3-0.3-0.9 0-1.2c0.3-0.3 0.9-0.3 1.2 0l7.6 7.7l7.6-7.7 c0.3-0.3 0.9-0.3 1.2 0C25.2 812.6 25.2 813.1 24.8 813.5z" class="style0"/></svg>